<?xml version="1.0" encoding="UTF-8"?>
<svg width="600" height="500" viewBox="0 0 600 500" fill="none" xmlns="http://www.w3.org/2000/svg">
  <!-- SEO Text -->
  <rect x="200" y="100" width="200" height="100" rx="10" fill="#4F46E5" opacity="0.9"/>
  <text x="250" y="160" fill="white" font-family="Arial" font-size="48" font-weight="bold">SEO</text>
  
  <!-- Gear Icon -->
  <circle cx="400" cy="150" r="40" fill="#4F46E5" opacity="0.2"/>
  <path d="M400 120v60M370 150h60M385 135l30 30M415 135l-30 30" stroke="#4F46E5" stroke-width="4"/>
  
  <!-- People Icons -->
  <circle cx="150" cy="250" r="20" fill="#4F46E5" opacity="0.6"/>
  <circle cx="450" cy="250" r="20" fill="#4F46E5" opacity="0.6"/>
  <circle cx="300" cy="350" r="20" fill="#4F46E5" opacity="0.6"/>
  
  <!-- Laptop -->
  <rect x="250" y="230" width="100" height="70" rx="5" fill="#4F46E5" opacity="0.3"/>
  <rect x="270" y="240" width="60" height="40" fill="white"/>
  
  <!-- Code Symbols -->
  <text x="500" y="100" fill="#4F46E5" font-family="monospace" font-size="24">&lt;/&gt;</text>
  <text x="100" y="400" fill="#4F46E5" font-family="monospace" font-size="24">{}</text>
  
  <!-- Connecting Lines -->
  <path d="M150 250L300 350M450 250L300 350M300 200L300 350" stroke="#4F46E5" stroke-width="2" opacity="0.4"/>
  
  <!-- Decorative Elements -->
  <circle cx="100" cy="150" r="5" fill="#4F46E5" opacity="0.5"/>
  <circle cx="500" cy="350" r="5" fill="#4F46E5" opacity="0.5"/>
  <circle cx="300" cy="450" r="5" fill="#4F46E5" opacity="0.5"/>
</svg>
