<?xml version="1.0" encoding="UTF-8"?>
<svg width="800px" height="600px" viewBox="0 0 800 600" version="1.1" xmlns="http://www.w3.org/2000/svg" xmlns:xlink="http://www.w3.org/1999/xlink">
    <title>Website Design Services</title>
    <defs>
        <linearGradient x1="50%" y1="0%" x2="50%" y2="100%" id="linearGradient-1">
            <stop stop-color="#EEF2FF" offset="0%"></stop>
            <stop stop-color="#C7D2FE" offset="100%"></stop>
        </linearGradient>
        <linearGradient x1="0%" y1="0%" x2="100%" y2="100%" id="linearGradient-2">
            <stop stop-color="#4F46E5" offset="0%"></stop>
            <stop stop-color="#6366F1" offset="100%"></stop>
        </linearGradient>
        <linearGradient x1="0%" y1="0%" x2="100%" y2="100%" id="linearGradient-3">
            <stop stop-color="#FFFFFF" offset="0%"></stop>
            <stop stop-color="#F3F4F6" offset="100%"></stop>
        </linearGradient>
    </defs>
    <g id="Website-Design" stroke="none" stroke-width="1" fill="none" fill-rule="evenodd">
        <rect id="Background" fill="url(#linearGradient-1)" x="0" y="0" width="800" height="600" rx="20"></rect>
        
        <!-- Browser Window -->
        <g id="Browser" transform="translate(100, 100)">
            <rect id="Window" fill="url(#linearGradient-3)" x="0" y="0" width="600" height="400" rx="12"></rect>
            <rect id="Toolbar" fill="#F9FAFB" x="0" y="0" width="600" height="40" rx="12 12 0 0"></rect>
            
            <!-- Browser Controls -->
            <circle id="Close" fill="#EF4444" cx="20" cy="20" r="6"></circle>
            <circle id="Minimize" fill="#F59E0B" cx="40" cy="20" r="6"></circle>
            <circle id="Expand" fill="#10B981" cx="60" cy="20" r="6"></circle>
            
            <!-- Address Bar -->
            <rect id="AddressBar" fill="#FFFFFF" x="100" y="10" width="400" height="20" rx="4"></rect>
            
            <!-- Website Content -->
            <rect id="Header" fill="#F3F4F6" x="20" y="60" width="560" height="60" rx="4"></rect>
            <rect id="Logo" fill="url(#linearGradient-2)" x="40" y="75" width="100" height="30" rx="4"></rect>
            
            <!-- Navigation -->
            <rect id="Nav1" fill="#E5E7EB" x="320" y="85" width="40" height="10" rx="2"></rect>
            <rect id="Nav2" fill="#E5E7EB" x="380" y="85" width="40" height="10" rx="2"></rect>
            <rect id="Nav3" fill="#E5E7EB" x="440" y="85" width="40" height="10" rx="2"></rect>
            <rect id="Nav4" fill="#E5E7EB" x="500" y="85" width="40" height="10" rx="2"></rect>
            
            <!-- Hero Section -->
            <rect id="HeroBackground" fill="#EEF2FF" x="20" y="140" width="560" height="200" rx="4"></rect>
            <rect id="HeroTitle" fill="#4F46E5" x="60" y="180" width="240" height="20" rx="2"></rect>
            <rect id="HeroSubtitle" fill="#6366F1" x="60" y="210" width="180" height="10" rx="2"></rect>
            <rect id="HeroText" fill="#A5B4FC" x="60" y="230" width="220" height="10" rx="2"></rect>
            <rect id="HeroText2" fill="#A5B4FC" x="60" y="250" width="200" height="10" rx="2"></rect>
            <rect id="HeroButton" fill="url(#linearGradient-2)" x="60" y="280" width="120" height="30" rx="15"></rect>
            
            <!-- Hero Image -->
            <rect id="HeroImage" fill="#C7D2FE" x="350" y="160" width="180" height="160" rx="4"></rect>
            <circle id="Circle1" fill="#818CF8" cx="400" cy="200" r="20"></circle>
            <rect id="Rectangle1" fill="#818CF8" x="440" y="180" width="60" height="10" rx="2"></rect>
            <rect id="Rectangle2" fill="#818CF8" x="440" y="200" width="40" height="10" rx="2"></rect>
            <rect id="Rectangle3" fill="#818CF8" x="440" y="220" width="50" height="10" rx="2"></rect>
            <rect id="Rectangle4" fill="#818CF8" x="380" y="240" width="120" height="10" rx="2"></rect>
            <rect id="Rectangle5" fill="#818CF8" x="380" y="260" width="100" height="10" rx="2"></rect>
        </g>
        
        <!-- Decorative Elements -->
        <circle id="Dot1" fill="#4F46E5" opacity="0.2" cx="50" cy="150" r="20"></circle>
        <circle id="Dot2" fill="#4F46E5" opacity="0.2" cx="750" cy="450" r="30"></circle>
        <circle id="Dot3" fill="#4F46E5" opacity="0.2" cx="700" cy="100" r="15"></circle>
        <circle id="Dot4" fill="#4F46E5" opacity="0.2" cx="100" cy="500" r="25"></circle>
    </g>
</svg>
