<?xml version="1.0" encoding="UTF-8"?>
<svg width="600px" height="400px" viewBox="0 0 600 400" version="1.1" xmlns="http://www.w3.org/2000/svg" xmlns:xlink="http://www.w3.org/1999/xlink">
    <title>Social Media Marketing</title>
    <defs>
        <linearGradient x1="0%" y1="0%" x2="100%" y2="100%" id="linearGradient-1">
            <stop stop-color="#4F46E5" offset="0%"></stop>
            <stop stop-color="#6366F1" offset="100%"></stop>
        </linearGradient>
        <linearGradient x1="0%" y1="0%" x2="100%" y2="100%" id="linearGradient-2">
            <stop stop-color="#EEF2FF" offset="0%"></stop>
            <stop stop-color="#C7D2FE" offset="100%"></stop>
        </linearGradient>
    </defs>
    <g id="Social-Media" stroke="none" stroke-width="1" fill="none" fill-rule="evenodd">
        <rect id="Background" fill="#F9FAFB" x="0" y="0" width="600" height="400" rx="8"></rect>
        
        <!-- Social Media Icons -->
        <g id="SocialIcons" transform="translate(100, 100)">
            <!-- Facebook -->
            <g id="Facebook" transform="translate(0, 0)">
                <circle id="FacebookBg" fill="#4F46E5" cx="40" cy="40" r="40"></circle>
                <rect id="FacebookLogo" fill="#FFFFFF" x="30" y="20" width="20" height="40" rx="2"></rect>
                <rect id="FacebookBar" fill="#FFFFFF" x="20" y="35" width="40" height="10" rx="2"></rect>
            </g>
            
            <!-- Instagram -->
            <g id="Instagram" transform="translate(100, 0)">
                <circle id="InstagramBg" fill="#6366F1" cx="40" cy="40" r="40"></circle>
                <rect id="InstagramSquare" fill="none" stroke="#FFFFFF" stroke-width="4" x="20" y="20" width="40" height="40" rx="10"></rect>
                <circle id="InstagramCircle" fill="none" stroke="#FFFFFF" stroke-width="4" cx="40" cy="40" r="10"></circle>
                <circle id="InstagramDot" fill="#FFFFFF" cx="55" cy="25" r="3"></circle>
            </g>
            
            <!-- Twitter -->
            <g id="Twitter" transform="translate(200, 0)">
                <circle id="TwitterBg" fill="#818CF8" cx="40" cy="40" r="40"></circle>
                <path d="M20,25 C25,20 35,15 45,25 C45,25 55,15 65,25 C65,25 65,30 60,35 C60,35 65,60 40,60 C15,60 20,35 20,35 C20,35 15,35 15,30 C15,25 20,25 20,25 Z" id="TwitterBird" fill="#FFFFFF"></path>
            </g>
            
            <!-- LinkedIn -->
            <g id="LinkedIn" transform="translate(300, 0)">
                <circle id="LinkedInBg" fill="#A5B4FC" cx="40" cy="40" r="40"></circle>
                <rect id="LinkedInBase" fill="#FFFFFF" x="20" y="20" width="40" height="40" rx="4"></rect>
                <rect id="LinkedInTop" fill="#A5B4FC" x="30" y="20" width="10" height="10" rx="5"></rect>
                <rect id="LinkedInBar1" fill="#A5B4FC" x="25" y="35" width="30" height="5" rx="2"></rect>
                <rect id="LinkedInBar2" fill="#A5B4FC" x="25" y="45" width="30" height="5" rx="2"></rect>
                <rect id="LinkedInBar3" fill="#A5B4FC" x="25" y="55" width="30" height="5" rx="2"></rect>
            </g>
        </g>
        
        <!-- Connections -->
        <g id="Connections" transform="translate(100, 150)">
            <line x1="40" y1="0" x2="140" y2="0" stroke="#E5E7EB" stroke-width="2" stroke-dasharray="5,5"></line>
            <line x1="140" y1="0" x2="240" y2="0" stroke="#E5E7EB" stroke-width="2" stroke-dasharray="5,5"></line>
            <line x1="240" y1="0" x2="340" y2="0" stroke="#E5E7EB" stroke-width="2" stroke-dasharray="5,5"></line>
            
            <line x1="40" y1="0" x2="40" y2="50" stroke="#E5E7EB" stroke-width="2" stroke-dasharray="5,5"></line>
            <line x1="140" y1="0" x2="140" y2="50" stroke="#E5E7EB" stroke-width="2" stroke-dasharray="5,5"></line>
            <line x1="240" y1="0" x2="240" y2="50" stroke="#E5E7EB" stroke-width="2" stroke-dasharray="5,5"></line>
            <line x1="340" y1="0" x2="340" y2="50" stroke="#E5E7EB" stroke-width="2" stroke-dasharray="5,5"></line>
        </g>
        
        <!-- People/Audience -->
        <g id="Audience" transform="translate(100, 200)">
            <g id="Person1" transform="translate(20, 0)">
                <circle id="Head1" fill="#4F46E5" cx="20" cy="20" r="20"></circle>
                <rect id="Body1" fill="#4F46E5" x="0" y="40" width="40" height="60" rx="4"></rect>
            </g>
            
            <g id="Person2" transform="translate(120, 0)">
                <circle id="Head2" fill="#6366F1" cx="20" cy="20" r="20"></circle>
                <rect id="Body2" fill="#6366F1" x="0" y="40" width="40" height="60" rx="4"></rect>
            </g>
            
            <g id="Person3" transform="translate(220, 0)">
                <circle id="Head3" fill="#818CF8" cx="20" cy="20" r="20"></circle>
                <rect id="Body3" fill="#818CF8" x="0" y="40" width="40" height="60" rx="4"></rect>
            </g>
            
            <g id="Person4" transform="translate(320, 0)">
                <circle id="Head4" fill="#A5B4FC" cx="20" cy="20" r="20"></circle>
                <rect id="Body4" fill="#A5B4FC" x="0" y="40" width="40" height="60" rx="4"></rect>
            </g>
        </g>
        
        <!-- Decorative Elements -->
        <g id="Decorations">
            <circle id="Dot1" fill="#EEF2FF" cx="50" cy="50" r="30"></circle>
            <circle id="Dot2" fill="#EEF2FF" cx="550" cy="50" r="25"></circle>
            <circle id="Dot3" fill="#EEF2FF" cx="50" cy="350" r="20"></circle>
            <circle id="Dot4" fill="#EEF2FF" cx="550" cy="350" r="35"></circle>
            
            <rect id="Rectangle1" fill="#EEF2FF" x="500" y="150" width="50" height="50" rx="10"></rect>
            <rect id="Rectangle2" fill="#EEF2FF" x="50" y="150" width="30" height="30" rx="6"></rect>
        </g>
    </g>
</svg>
