<?xml version="1.0" encoding="UTF-8"?>
<svg width="600px" height="400px" viewBox="0 0 600 400" version="1.1" xmlns="http://www.w3.org/2000/svg" xmlns:xlink="http://www.w3.org/1999/xlink">
    <title>Website Design</title>
    <defs>
        <linearGradient x1="0%" y1="0%" x2="100%" y2="100%" id="linearGradient-1">
            <stop stop-color="#4F46E5" offset="0%"></stop>
            <stop stop-color="#6366F1" offset="100%"></stop>
        </linearGradient>
        <linearGradient x1="0%" y1="0%" x2="100%" y2="100%" id="linearGradient-2">
            <stop stop-color="#EEF2FF" offset="0%"></stop>
            <stop stop-color="#C7D2FE" offset="100%"></stop>
        </linearGradient>
    </defs>
    <g id="Website-Design" stroke="none" stroke-width="1" fill="none" fill-rule="evenodd">
        <rect id="Background" fill="#F9FAFB" x="0" y="0" width="600" height="400" rx="8"></rect>
        
        <!-- Browser Window -->
        <g id="Browser" transform="translate(100, 50)">
            <rect id="Window" fill="#FFFFFF" x="0" y="0" width="400" height="300" rx="8" stroke="#E5E7EB" stroke-width="2"></rect>
            <rect id="Toolbar" fill="#F3F4F6" x="0" y="0" width="400" height="40" rx="8 8 0 0"></rect>
            
            <!-- Browser Controls -->
            <circle id="Close" fill="#EF4444" cx="20" cy="20" r="6"></circle>
            <circle id="Minimize" fill="#F59E0B" cx="40" cy="20" r="6"></circle>
            <circle id="Expand" fill="#10B981" cx="60" cy="20" r="6"></circle>
            
            <!-- Address Bar -->
            <rect id="AddressBar" fill="#FFFFFF" x="100" y="10" width="250" height="20" rx="4" stroke="#E5E7EB" stroke-width="1"></rect>
            
            <!-- Website Content -->
            <g id="Content" transform="translate(20, 60)">
                <!-- Header -->
                <rect id="Header" fill="#F3F4F6" x="0" y="0" width="360" height="60" rx="4"></rect>
                <rect id="Logo" fill="url(#linearGradient-1)" x="20" y="15" width="80" height="30" rx="4"></rect>
                
                <!-- Navigation -->
                <rect id="Nav1" fill="#E5E7EB" x="200" y="25" width="30" height="10" rx="2"></rect>
                <rect id="Nav2" fill="#E5E7EB" x="240" y="25" width="30" height="10" rx="2"></rect>
                <rect id="Nav3" fill="#E5E7EB" x="280" y="25" width="30" height="10" rx="2"></rect>
                <rect id="Nav4" fill="#E5E7EB" x="320" y="25" width="30" height="10" rx="2"></rect>
                
                <!-- Hero Section -->
                <rect id="HeroBackground" fill="url(#linearGradient-2)" x="0" y="80" width="360" height="120" rx="4"></rect>
                <rect id="HeroTitle" fill="#4F46E5" x="40" y="100" width="160" height="15" rx="2"></rect>
                <rect id="HeroSubtitle" fill="#6366F1" x="40" y="125" width="120" height="10" rx="2"></rect>
                <rect id="HeroText" fill="#A5B4FC" x="40" y="145" width="140" height="8" rx="2"></rect>
                <rect id="HeroText2" fill="#A5B4FC" x="40" y="160" width="100" height="8" rx="2"></rect>
                <rect id="HeroButton" fill="url(#linearGradient-1)" x="40" y="180" width="80" height="20" rx="10"></rect>
                
                <!-- Hero Image -->
                <rect id="HeroImage" fill="#C7D2FE" x="240" y="100" width="80" height="80" rx="4"></rect>
                
                <!-- Content Section -->
                <rect id="ContentTitle" fill="#4F46E5" x="0" y="220" width="100" height="10" rx="2"></rect>
                <rect id="ContentText" fill="#A5B4FC" x="0" y="240" width="360" height="6" rx="2"></rect>
                <rect id="ContentText2" fill="#A5B4FC" x="0" y="252" width="340" height="6" rx="2"></rect>
                <rect id="ContentText3" fill="#A5B4FC" x="0" y="264" width="320" height="6" rx="2"></rect>
            </g>
        </g>
        
        <!-- Design Elements -->
        <g id="DesignElements" transform="translate(50, 100)">
            <circle id="Circle1" fill="#EEF2FF" cx="20" cy="20" r="20"></circle>
            <rect id="Rectangle1" fill="#EEF2FF" x="10" y="150" width="40" height="40" rx="8"></rect>
            <circle id="Circle2" fill="#EEF2FF" cx="30" cy="250" r="15"></circle>
        </g>
        
        <g id="DesignElements2" transform="translate(520, 100)">
            <circle id="Circle3" fill="#EEF2FF" cx="30" cy="30" r="25"></circle>
            <rect id="Rectangle2" fill="#EEF2FF" x="20" y="150" width="30" height="30" rx="6"></rect>
            <circle id="Circle4" fill="#EEF2FF" cx="35" cy="250" r="20"></circle>
        </g>
    </g>
</svg>
